<mxfile host="app.diagrams.net" modified="2021-01-21T10:01:06.760Z" agent="5.0 (Windows NT 10.0; Win64; x64) AppleWebKit/537.36 (KHTML, like Gecko) Chrome/87.0.4280.88 Safari/537.36" etag="3nB1cX6vHyM0JMHw3X0F" version="14.2.6" type="github">
  <diagram id="3YMHMlm2BKdynRUiizbd" name="第 1 页">
    <mxGraphModel dx="2249" dy="762" grid="1" gridSize="10" guides="1" tooltips="1" connect="1" arrows="1" fold="1" page="1" pageScale="1" pageWidth="827" pageHeight="1169" math="0" shadow="0">
      <root>
        <mxCell id="0" />
        <mxCell id="1" parent="0" />
        <mxCell id="zaBiyNkHyqaCWCV5hfEf-29" style="edgeStyle=orthogonalEdgeStyle;rounded=0;orthogonalLoop=1;jettySize=auto;html=1;entryX=0.589;entryY=1.008;entryDx=0;entryDy=0;entryPerimeter=0;" parent="1" source="zaBiyNkHyqaCWCV5hfEf-28" target="zaBiyNkHyqaCWCV5hfEf-14" edge="1">
          <mxGeometry relative="1" as="geometry" />
        </mxCell>
        <mxCell id="zaBiyNkHyqaCWCV5hfEf-28" value="" style="rounded=0;whiteSpace=wrap;html=1;fillColor=#ffffff;align=center;" parent="1" vertex="1">
          <mxGeometry x="150" y="750" width="330" height="100" as="geometry" />
        </mxCell>
        <mxCell id="zaBiyNkHyqaCWCV5hfEf-3" value="" style="shape=internalStorage;whiteSpace=wrap;html=1;backgroundOutline=1;dx=161;dy=40;" parent="1" vertex="1">
          <mxGeometry x="9" y="10" width="810" height="560" as="geometry" />
        </mxCell>
        <mxCell id="zaBiyNkHyqaCWCV5hfEf-8" value="#container" style="text;html=1;strokeColor=none;fillColor=none;align=center;verticalAlign=middle;whiteSpace=wrap;rounded=0;" parent="1" vertex="1">
          <mxGeometry x="170" y="50" width="130" height="50" as="geometry" />
        </mxCell>
        <mxCell id="zaBiyNkHyqaCWCV5hfEf-9" value="导航 / 导航1 / 导航2" style="text;html=1;strokeColor=none;fillColor=none;align=center;verticalAlign=middle;whiteSpace=wrap;rounded=0;" parent="1" vertex="1">
          <mxGeometry x="180" y="20" width="120" height="20" as="geometry" />
        </mxCell>
        <mxCell id="zaBiyNkHyqaCWCV5hfEf-11" value="&lt;b&gt;MenuList&lt;/b&gt;&lt;br&gt;&lt;br&gt;菜单1&lt;br&gt;-1&lt;br&gt;-2&lt;br&gt;&lt;br&gt;菜单2&lt;br&gt;-1&lt;br&gt;-2&lt;br&gt;&lt;br&gt;菜单3&lt;br&gt;-1&lt;br&gt;-2&lt;br&gt;&lt;br&gt;" style="text;html=1;strokeColor=#6c8ebf;fillColor=#dae8fc;align=center;verticalAlign=top;whiteSpace=wrap;rounded=0;" parent="1" vertex="1">
          <mxGeometry x="9" y="50" width="71" height="520" as="geometry" />
        </mxCell>
        <mxCell id="zaBiyNkHyqaCWCV5hfEf-14" value="&lt;b&gt;MenuRoutes&lt;br&gt;&lt;/b&gt;&lt;br&gt;routePath1&lt;br&gt;-path1&lt;br&gt;-path2&lt;br&gt;&lt;br&gt;subRoutePath2&lt;br&gt;-subAppPath1&lt;br&gt;-subAppPath2&lt;br&gt;&lt;br&gt;subRoutePath3&lt;br&gt;-subAppPath1&lt;br&gt;-subAppPath2&lt;b&gt;&lt;br&gt;&lt;/b&gt;" style="text;html=1;strokeColor=#82b366;fillColor=#d5e8d4;align=center;verticalAlign=top;whiteSpace=wrap;rounded=0;" parent="1" vertex="1">
          <mxGeometry x="80" y="50" width="90" height="520" as="geometry" />
        </mxCell>
        <mxCell id="zaBiyNkHyqaCWCV5hfEf-19" style="edgeStyle=orthogonalEdgeStyle;rounded=0;orthogonalLoop=1;jettySize=auto;html=1;entryX=0.25;entryY=1;entryDx=0;entryDy=0;" parent="1" source="zaBiyNkHyqaCWCV5hfEf-16" target="zaBiyNkHyqaCWCV5hfEf-11" edge="1">
          <mxGeometry relative="1" as="geometry" />
        </mxCell>
        <mxCell id="zaBiyNkHyqaCWCV5hfEf-16" value="权限中心" style="rounded=1;whiteSpace=wrap;html=1;fillColor=#ffffff;align=center;" parent="1" vertex="1">
          <mxGeometry x="-140" y="670" width="120" height="60" as="geometry" />
        </mxCell>
        <mxCell id="zaBiyNkHyqaCWCV5hfEf-23" style="edgeStyle=orthogonalEdgeStyle;rounded=0;orthogonalLoop=1;jettySize=auto;html=1;entryX=0.25;entryY=1;entryDx=0;entryDy=0;" parent="1" source="zaBiyNkHyqaCWCV5hfEf-20" target="zaBiyNkHyqaCWCV5hfEf-14" edge="1">
          <mxGeometry relative="1" as="geometry" />
        </mxCell>
        <mxCell id="zaBiyNkHyqaCWCV5hfEf-20" value="主应用 routes" style="rounded=1;whiteSpace=wrap;html=1;fillColor=#ffffff;align=center;" parent="1" vertex="1">
          <mxGeometry x="20" y="770" width="120" height="60" as="geometry" />
        </mxCell>
        <mxCell id="zaBiyNkHyqaCWCV5hfEf-21" value="子应用 menu.json" style="rounded=1;whiteSpace=wrap;html=1;fillColor=#ffffff;align=center;" parent="1" vertex="1">
          <mxGeometry x="320" y="770" width="120" height="60" as="geometry" />
        </mxCell>
        <mxCell id="zaBiyNkHyqaCWCV5hfEf-22" value="子应用 menu.json" style="rounded=1;whiteSpace=wrap;html=1;fillColor=#ffffff;align=center;" parent="1" vertex="1">
          <mxGeometry x="180" y="770" width="120" height="60" as="geometry" />
        </mxCell>
        <mxCell id="zaBiyNkHyqaCWCV5hfEf-31" value="用户登录，构建菜单栏" style="text;html=1;strokeColor=#b85450;fillColor=#f8cecc;align=center;verticalAlign=middle;whiteSpace=wrap;rounded=0;" parent="1" vertex="1">
          <mxGeometry y="600" width="180" height="20" as="geometry" />
        </mxCell>
        <mxCell id="zaBiyNkHyqaCWCV5hfEf-34" value="fetch all" style="text;html=1;strokeColor=none;fillColor=none;align=center;verticalAlign=middle;whiteSpace=wrap;rounded=0;" parent="1" vertex="1">
          <mxGeometry x="210" y="640" width="90" height="10" as="geometry" />
        </mxCell>
        <mxCell id="zaBiyNkHyqaCWCV5hfEf-35" value="fetch" style="text;html=1;strokeColor=none;fillColor=none;align=center;verticalAlign=middle;whiteSpace=wrap;rounded=0;" parent="1" vertex="1">
          <mxGeometry x="-10" y="650" width="40" height="20" as="geometry" />
        </mxCell>
      </root>
    </mxGraphModel>
  </diagram>
</mxfile>
